# xmcd
#
# Track frame offsets:
#	180
#	17901
#	32057
#	43911
#	60167
#	78025
#	94285
#	113782
#	125887
#	141152
#	158768
#	173474
#	188993
#	205185
#	221833
#
# Disc length: 3156 seconds
#
# Revision: 1
# Processed by: cddbd v1.5.1PL2 Copyright (c) Steve Scherf et al.
# Submitted via: audiograbber 1.83.01
#
DISCID=ce0c520f
DTITLE=Sound Choice - SC8144
DYEAR=1900
DGENRE=Karaoke Country
TTITLE0=Wariner, Steve - When I Could Come Home To You 
TTITLE1=Strait, George - Easy Come, Easy Go 
TTITLE2=Raye, Collin - Every Second
TTITLE3=Strait, George - Baby Blue
TTITLE4=Judd, Wynonna - I Saw The Light
TTITLE5=Diamond Rio - Meet In The Middle
TTITLE6=Cash, Johnny - One Piece At A Time
TTITLE7=Highway 101 - Walkin' Talkin' Cryin' Barely Beatin' Broken Heart
TTITLE8=Brown, Sawyer - Thank God For You 
TTITLE9=Mavericks - What A Crying Shame
TTITLE10=Mcentire, Reba - Walk On 
TTITLE11=Parton, Dolly - Applejack 
TTITLE12=Tippin, Aaron - My Blue Angel
TTITLE13=Loveless, Patty - Blame It On Your Heart
TTITLE14=Milsap, Ronnie - Stranger Things Have Happened
EXTD=
EXTT0=
EXTT1=
EXTT2=
EXTT3=
EXTT4=
EXTT5=
EXTT6=
EXTT7=
EXTT8=
EXTT9=
EXTT10=
EXTT11=
EXTT12=
EXTT13=
EXTT14=
PLAYORDER=
